<svg width="176" height="45" viewBox="0 0 176 45" fill="none" xmlns="http://www.w3.org/2000/svg">
<rect x="0.5" y="0.5" width="175" height="44" rx="22" stroke="#797979"/>
<path d="M34.02 13.88H35.76V31.52H34.02V22.3H31.84V30.66H30.12V14.26H31.84V20.82H34.02V13.88ZM21.36 26.86V15.86H28.12V26.86H21.36ZM23.06 25.44H26.42V17.32H23.06V25.44ZM38.5805 15.98H42.4805V13.88H44.3005V15.98H48.1605V17.44H44.2805V17.56C44.2805 19.7 46.0405 21.66 48.7205 22.4L47.8605 23.86C45.8005 23.24 44.2405 21.96 43.4205 20.28C42.6605 22.14 41.1005 23.58 38.9805 24.26L38.1005 22.82C40.7805 21.98 42.4805 19.86 42.4805 17.56V17.44H38.5805V15.98ZM40.5005 28.26C40.5005 26.2 42.7405 25.02 46.4205 25.02C50.1005 25.02 52.3805 26.2 52.3805 28.26C52.3805 30.32 50.1005 31.5 46.4205 31.5C42.7405 31.5 40.5005 30.32 40.5005 28.26ZM42.3205 28.26C42.3205 29.42 43.8205 30.08 46.4205 30.08C49.0205 30.08 50.5605 29.42 50.5605 28.26C50.5605 27.1 49.0205 26.44 46.4205 26.44C43.8205 26.44 42.3205 27.1 42.3205 28.26ZM50.4805 24.68V13.9H52.3005V24.68H50.4805ZM70.9103 13.9H72.7503V20.74H75.5503V22.28H72.7503V31.54H70.9103V13.9ZM59.7903 27.32V15.36H61.6103V19.92H66.2903V15.36H68.1103V27.32H59.7903ZM61.6103 25.84H66.2903V21.36H61.6103V25.84ZM76.1908 27.9H83.2508V24.74H78.1508V19.16H88.4308V16.62H78.1108V15.14H90.2508V20.6H79.9508V23.26H90.6508V24.74H85.0708V27.9H92.1708V29.4H76.1908V27.9ZM105.051 13.86H106.911V20.94H109.631V22.46H106.911V31.52H105.051V13.86ZM93.3113 26.84C97.7113 24.6 100.111 21.38 100.471 17.24H94.1713V15.76H102.311C102.311 20.84 100.071 25.36 94.3313 28.24L93.3113 26.84ZM123.032 13.88H124.872V31.52H123.032V13.88ZM110.512 26.86C115.192 24.6 117.452 21.38 117.812 17.24H111.352V15.76H119.652C119.652 20.94 117.472 25.4 111.472 28.3L110.512 26.86Z" fill="#797979"/>
<path d="M138 23H156L150.375 17" stroke="#797979"/>
</svg>
