<svg width="38" height="40" viewBox="0 0 38 40" fill="none" xmlns="http://www.w3.org/2000/svg">
<path d="M28 40V34H22V30H28V24H32V30H38V34H32V40H28ZM4 36C2.9 36 1.958 35.608 1.174 34.824C0.390003 34.04 -0.00132994 33.0987 3.39559e-06 32V8C3.39559e-06 6.9 0.392003 5.958 1.176 5.174C1.96 4.39 2.90134 3.99867 4 4H6V0H10V4H22V0H26V4H28C29.1 4 30.042 4.392 30.826 5.176C31.61 5.96 32.0013 6.90133 32 8V20.2C31.3333 20.1 30.6667 20.05 30 20.05C29.3333 20.05 28.6667 20.1 28 20.2V16H4V32H18C18 32.6667 18.05 33.3333 18.15 34C18.25 34.6667 18.4333 35.3333 18.7 36H4Z" fill="black"/>
</svg>
