<svg width="24" height="24" viewBox="0 0 24 24" fill="none" xmlns="http://www.w3.org/2000/svg">
<path d="M19.6667 0C22.0599 0 24 1.94009 24 4.33333V19.6667C24 22.0599 22.0599 24 19.6667 24H4.33333C1.94009 24 0 22.0599 0 19.6667V4.33333C0 1.94009 1.94009 0 4.33333 0H19.6667ZM22 7.33333H2V19.6667C2 20.9553 3.04467 22 4.33333 22H19.6667C20.9553 22 22 20.9553 22 19.6667V7.33333ZM6.33333 15.3333C7.25381 15.3333 8 16.0795 8 17C8 17.9205 7.25381 18.6667 6.33333 18.6667C5.41285 18.6667 4.66667 17.9205 4.66667 17C4.66667 16.0795 5.41285 15.3333 6.33333 15.3333ZM12 15.3333C12.9205 15.3333 13.6667 16.0795 13.6667 17C13.6667 17.9205 12.9205 18.6667 12 18.6667C11.0795 18.6667 10.3333 17.9205 10.3333 17C10.3333 16.0795 11.0795 15.3333 12 15.3333ZM6.33333 10C7.25381 10 8 10.7461 8 11.6667C8 12.5872 7.25381 13.3333 6.33333 13.3333C5.41285 13.3333 4.66667 12.5872 4.66667 11.6667C4.66667 10.7461 5.41285 10 6.33333 10ZM12 10C12.9205 10 13.6667 10.7461 13.6667 11.6667C13.6667 12.5872 12.9205 13.3333 12 13.3333C11.0795 13.3333 10.3333 12.5872 10.3333 11.6667C10.3333 10.7461 11.0795 10 12 10ZM17.6667 10C18.5872 10 19.3333 10.7461 19.3333 11.6667C19.3333 12.5872 18.5872 13.3333 17.6667 13.3333C16.7461 13.3333 16 12.5872 16 11.6667C16 10.7461 16.7461 10 17.6667 10Z" fill="#C9C9C9"/>
</svg>
