<svg width="20" height="20" viewBox="0 0 20 20" fill="none" xmlns="http://www.w3.org/2000/svg">
<circle cx="10" cy="10" r="10" fill="#C9C9C9"/>
<path fill-rule="evenodd" clip-rule="evenodd" d="M5.04928 4.58389C5.35861 4.26142 5.86014 4.26142 6.16947 4.58389L15.4399 14.2482C15.7492 14.5707 15.7492 15.0935 15.4399 15.416C15.1306 15.7384 14.629 15.7384 14.3197 15.416L5.04928 5.75168C4.73994 5.42921 4.73994 4.90637 5.04928 4.58389Z" fill="#797979"/>
<path fill-rule="evenodd" clip-rule="evenodd" d="M4.5601 15.4162C4.25076 15.0937 4.25076 14.5709 4.5601 14.2484L13.8305 4.58409C14.1399 4.26162 14.6414 4.26162 14.9507 4.58409C15.2601 4.90657 15.2601 5.42941 14.9507 5.75188L5.68029 15.4162C5.37096 15.7386 4.86943 15.7386 4.5601 15.4162Z" fill="#797979"/>
</svg>
