<svg width="24" height="24" viewBox="0 0 24 24" fill="none" xmlns="http://www.w3.org/2000/svg">
<circle cx="12" cy="12" r="12" fill="#C9C9C9"/>
<path d="M11.7797 18C11.0044 18 10.5844 17.5407 10.5844 16.9522C10.5844 16.3636 11.0044 15.9043 11.7797 15.9043C12.5388 15.9043 12.9588 16.3636 12.9588 16.9522C12.9588 17.5407 12.5388 18 11.7797 18ZM8 8.55502C8.6461 7.04785 10.1644 6 12.0058 6C14.0895 6 16.1085 7.63636 15.9955 9.54545C15.9309 10.6077 15.3332 11.6411 13.718 12.7177C12.9427 13.2201 12.8296 13.4498 12.8296 14.4545L10.6328 14.4833C10.6167 12.933 11.1336 11.9713 12.4096 11.1388C13.5403 10.3923 13.7664 10.0048 13.7987 9.43062C13.8472 8.52632 12.975 7.95215 12.0058 7.95215C11.0205 7.95215 10.439 8.35407 10.0675 9.24402L8 8.55502Z" fill="white"/>
</svg>
