<svg width="100" height="22" viewBox="0 0 100 22" fill="none" xmlns="http://www.w3.org/2000/svg">
<path d="M61.8687 20.2401H58.3663V12.6864H50.6148V20.2401H47.1124V2.83691H50.6148V9.93157H58.3663V2.83691H61.8687V20.2401Z" fill="#242424"/>
<path d="M66.6392 1.66699C67.814 1.66699 68.4618 2.47047 68.4618 3.48165C68.4618 4.49283 67.814 5.29631 66.6392 5.29631C65.4644 5.29631 64.8167 4.49283 64.8167 3.48165C64.8167 2.47047 65.4644 1.66699 66.6392 1.66699ZM68.3904 7.68488V20.3383H64.888V7.67941H68.3904V7.68488Z" fill="#242424"/>
<path d="M71.2725 2.56348H74.7749V9.58708C75.6971 8.59776 76.9653 8.16596 77.8656 8.16596C81.4613 8.16596 83.4705 10.8989 83.4705 14.0691C83.4705 17.2393 81.4668 20.0159 77.8656 20.0159C76.9653 20.0159 75.7905 19.8574 74.7749 18.5675V19.8519L71.2725 19.8301V2.56348ZM79.9681 14.0691C79.9681 12.3036 78.8866 10.9262 77.4978 10.9262C75.9771 10.9262 74.7749 12.3036 74.7749 14.0691C74.7749 15.8345 75.9716 17.2611 77.4978 17.2611C78.8812 17.2611 79.9681 15.8619 79.9681 14.0691Z" fill="#242424"/>
<path d="M87.2969 1.66699C88.4717 1.66699 89.1195 2.47047 89.1195 3.48165C89.1195 4.49283 88.4717 5.29631 87.2969 5.29631C86.1222 5.29631 85.4744 4.49283 85.4744 3.48165C85.4744 2.47047 86.1222 1.66699 87.2969 1.66699ZM89.0482 7.68488V20.3383H85.5457V7.67941H89.0482V7.68488Z" fill="#242424"/>
<path d="M97.4199 20.147C95.0428 20.147 93.4289 18.2176 93.4289 15.7853V10.6419H91.1451V7.88717H93.4289V4.50928H96.9313V7.88717H99.6322V10.6419H96.9313V15.7853C96.9313 16.3811 97.2991 17.026 97.8316 17.1627C98.2927 17.2556 98.2707 17.1846 98.7538 16.955L100 19.666C99.3083 19.9885 98.5233 20.147 97.4199 20.147Z" fill="#242424"/>
<path d="M19.3347 3.7277C17.309 1.44298 14.35 0 11.0452 0C4.9462 0 0 4.92472 0 10.9973C0 13.3804 0.757576 15.5831 2.05314 17.3814L1.82257 18.2395L1.10892 20.8959L3.7769 20.1853L4.63878 19.9558C6.44488 21.2402 8.66271 22 11.0507 22C14.35 22 17.3144 20.557 19.3347 18.2723C17.6164 16.3319 16.5733 13.7903 16.5733 11.0027C16.5733 8.21515 17.6164 5.66807 19.3347 3.73317V3.7277Z" fill="#5E1EC7"/>
<path d="M36.6162 17.3814C37.9063 15.5831 38.6694 13.3749 38.6694 10.9973C38.6639 4.92472 33.7177 0 27.6186 0C24.3193 0 21.3549 1.44298 19.3347 3.7277C21.053 5.66807 22.096 8.20969 22.096 10.9973C22.096 13.7848 21.053 16.3319 19.3347 18.2668C21.3604 20.5516 24.3193 21.9945 27.6186 21.9945C30.0121 21.9945 32.2245 21.2402 34.0306 19.9503L34.8925 20.1799L37.5605 20.8904L36.8468 18.234L36.6162 17.3759V17.3814Z" fill="#FFC942"/>
</svg>
