<svg width="22" height="22" viewBox="0 0 22 22" fill="none" xmlns="http://www.w3.org/2000/svg">
<path d="M11 21.9918C8.73893 21.9918 6.57689 21.3156 4.73668 20.0375L0.940735 21.0517L1.95574 17.2586C0.676669 15.4115 0 13.2511 0 11C0 4.93103 4.93473 0 11 0C14.1523 0 17.1643 1.36057 19.2521 3.72714C21.0263 5.73913 22 8.32009 22 11C22 13.6799 21.0263 16.2609 19.2521 18.2729C17.1643 20.6394 14.1523 22 11 22V21.9918Z" fill="#FFC942"/>
<circle cx="6.875" cy="11" r="1.375" fill="white"/>
<circle cx="11" cy="11" r="1.375" fill="white"/>
<circle cx="15.125" cy="11" r="1.375" fill="white"/>
</svg>
