<svg width="32" height="32" viewBox="0 0 32 32" fill="none" xmlns="http://www.w3.org/2000/svg">
<path d="M16 31.988C12.7112 31.988 9.56639 31.0045 6.88972 29.1454L1.36834 30.6207L2.84471 25.1034C0.984246 22.4168 0 19.2744 0 16C0 7.17241 7.17779 0 16 0C20.5851 0 24.9662 1.97901 28.003 5.42129C30.5836 8.34783 32 12.1019 32 16C32 19.8981 30.5836 23.6522 28.003 26.5787C24.9662 30.021 20.5851 32 16 32V31.988Z" fill="#FFC942"/>
<circle cx="10" cy="16" r="2" fill="white"/>
<circle cx="16" cy="16" r="2" fill="white"/>
<circle cx="22" cy="16" r="2" fill="white"/>
</svg>
