<svg width="48" height="48" viewBox="0 0 48 48" fill="none" xmlns="http://www.w3.org/2000/svg">
<circle cx="24" cy="24" r="23.75" fill="#EEEEEE" stroke="#C9C9C9" stroke-width="0.5"/>
<path d="M29.8751 34.7403C29.8251 34.7103 29.7701 34.6853 29.7201 34.6553C34.0101 32.5403 36.9801 28.1503 37.0051 23.0753C37.0351 15.8703 31.2551 10.0453 24.0201 10.0003C16.8801 9.95526 11.0251 15.7653 11.0001 22.9153C10.9851 28.0703 13.9351 32.5303 18.2301 34.6653C17.7951 34.9253 17.3601 35.2103 16.9301 35.5303C13.8601 37.8253 12.3051 41.0403 12.0351 44.9353C15.6701 46.9203 19.7751 48.0003 24.0001 48.0003C28.2251 48.0003 32.3001 46.9553 35.9501 44.9653C35.5751 40.4803 33.6701 36.9553 29.8751 34.7403ZM20.2001 22.2603C19.5051 22.2603 18.9401 21.6953 18.9401 21.0003C18.9401 20.3053 19.5051 19.7403 20.2001 19.7403C20.8951 19.7403 21.4601 20.3053 21.4601 21.0003C21.4601 21.6953 20.8951 22.2603 20.2001 22.2603ZM24.0001 26.9003C22.6801 26.9003 21.6101 25.8253 21.6101 24.5103H22.3601C22.3601 25.4153 23.0951 26.1503 24.0001 26.1503C24.9051 26.1503 25.6401 25.4153 25.6401 24.5103H26.3901C26.3901 25.8303 25.3151 26.9003 24.0001 26.9003ZM27.8001 22.2603C27.1051 22.2603 26.5401 21.6953 26.5401 21.0003C26.5401 20.3053 27.1051 19.7403 27.8001 19.7403C28.4951 19.7403 29.0601 20.3053 29.0601 21.0003C29.0601 21.6953 28.4951 22.2603 27.8001 22.2603Z" fill="#C9C9C9"/>
</svg>
