<svg width="132" height="28" viewBox="0 0 132 28" fill="none" xmlns="http://www.w3.org/2000/svg">
<path d="M81.6657 25.7602H77.0425V16.1462H66.8107V25.7602H62.1875V3.6106H66.8107V12.6402H77.0425V3.6106H81.6657V25.7602Z" fill="#242424"/>
<path d="M87.9629 2.12158C89.5136 2.12158 90.3687 3.14419 90.3687 4.43115C90.3687 5.7181 89.5136 6.74071 87.9629 6.74071C86.4122 6.74071 85.5571 5.7181 85.5571 4.43115C85.5571 3.14419 86.4122 2.12158 87.9629 2.12158ZM90.2745 9.78071V25.8851H85.6513V9.77376H90.2745V9.78071Z" fill="#242424"/>
<path d="M94.0791 3.2627H98.7023V12.2018C99.9197 10.9427 101.594 10.3931 102.782 10.3931C107.528 10.3931 110.181 13.8714 110.181 17.9062C110.181 21.941 107.536 25.4749 102.782 25.4749C101.594 25.4749 100.043 25.2731 98.7023 23.6314V25.2662L94.0791 25.2383V3.2627ZM105.557 17.9062C105.557 15.6592 104.13 13.9062 102.296 13.9062C100.289 13.9062 98.7023 15.6592 98.7023 17.9062C98.7023 20.1531 100.282 21.9688 102.296 21.9688C104.123 21.9688 105.557 20.1879 105.557 17.9062Z" fill="#242424"/>
<path d="M115.231 2.12158C116.782 2.12158 117.637 3.14419 117.637 4.43115C117.637 5.7181 116.782 6.74071 115.231 6.74071C113.68 6.74071 112.825 5.7181 112.825 4.43115C112.825 3.14419 113.68 2.12158 115.231 2.12158ZM117.543 9.78071V25.8851H112.919V9.77376H117.543V9.78071Z" fill="#242424"/>
<path d="M128.594 25.6419C125.456 25.6419 123.326 23.1862 123.326 20.0906V13.5445H120.312V10.0384H123.326V5.73926H127.949V10.0384H131.514V13.5445H127.949V20.0906C127.949 20.8488 128.435 21.6697 129.138 21.8436C129.746 21.9619 129.717 21.8714 130.355 21.5793L132 25.0297C131.087 25.4401 130.051 25.6419 128.594 25.6419Z" fill="#242424"/>
<path d="M25.5217 4.74435C22.8478 1.83652 18.942 0 14.5797 0C6.52897 0 0 6.26783 0 13.9965C0 17.0296 0.999998 19.833 2.71014 22.1217L2.40579 23.2139L1.46376 26.5948L4.9855 25.6904L6.12318 25.3983C8.50723 27.033 11.4348 28 14.5869 28C18.942 28 22.855 26.1635 25.5217 23.2557C23.2536 20.7861 21.8768 17.5513 21.8768 14.0035C21.8768 10.4557 23.2536 7.21391 25.5217 4.7513V4.74435Z" fill="#5E1EC7"/>
<path d="M48.333 22.1217C50.0359 19.833 51.0432 17.0226 51.0432 13.9965C51.0359 6.26783 44.507 0 36.4562 0C32.1012 0 28.1881 1.83652 25.5215 4.74435C27.7896 7.21391 29.1664 10.4487 29.1664 13.9965C29.1664 17.5443 27.7896 20.7861 25.5215 23.2487C28.1954 26.1565 32.1012 27.993 36.4562 27.993C39.6157 27.993 42.5359 27.033 44.92 25.3913L46.0577 25.6835L49.5794 26.5878L48.6374 23.207L48.333 22.1148V22.1217Z" fill="#FFC942"/>
</svg>
