<svg width="132" height="28" viewBox="0 0 132 28" fill="none" xmlns="http://www.w3.org/2000/svg">
<path d="M81.6667 25.7599H77.0436V16.146H66.8117V25.7599H62.1885V3.61035H66.8117V12.6399H77.0436V3.61035H81.6667V25.7599Z" fill="#797979"/>
<path d="M87.9639 2.12207C89.5146 2.12207 90.3697 3.14468 90.3697 4.43164C90.3697 5.71859 89.5146 6.7412 87.9639 6.7412C86.4132 6.7412 85.5581 5.71859 85.5581 4.43164C85.5581 3.14468 86.4132 2.12207 87.9639 2.12207ZM90.2755 9.7812V25.8855H85.6523V9.77424H90.2755V9.7812Z" fill="#797979"/>
<path d="M94.0801 3.26221H98.7033V12.2013C99.9207 10.9422 101.595 10.3926 102.783 10.3926C107.529 10.3926 110.182 13.8709 110.182 17.9057C110.182 21.9405 107.537 25.4744 102.783 25.4744C101.595 25.4744 100.044 25.2726 98.7033 23.6309V25.2657L94.0801 25.2379V3.26221ZM105.558 17.9057C105.558 15.6587 104.131 13.9057 102.297 13.9057C100.29 13.9057 98.7033 15.6587 98.7033 17.9057C98.7033 20.1526 100.283 21.9683 102.297 21.9683C104.124 21.9683 105.558 20.1874 105.558 17.9057Z" fill="#797979"/>
<path d="M115.232 2.12207C116.783 2.12207 117.638 3.14468 117.638 4.43164C117.638 5.71859 116.783 6.7412 115.232 6.7412C113.681 6.7412 112.826 5.71859 112.826 4.43164C112.826 3.14468 113.681 2.12207 115.232 2.12207ZM117.544 9.7812V25.8855H112.92V9.77424H117.544V9.7812Z" fill="#797979"/>
<path d="M128.595 25.6414C125.457 25.6414 123.327 23.1857 123.327 20.0901V13.544H120.312V10.0379H123.327V5.73877H127.95V10.0379H131.515V13.544H127.95V20.0901C127.95 20.8483 128.435 21.6692 129.138 21.8431C129.747 21.9614 129.718 21.8709 130.355 21.5788L132 25.0292C131.087 25.4396 130.051 25.6414 128.595 25.6414Z" fill="#797979"/>
<path d="M25.5217 4.74435C22.8478 1.83652 18.942 0 14.5797 0C6.52899 0 0 6.26783 0 13.9965C0 17.0296 1 19.833 2.71014 22.1217L2.4058 23.2139L1.46377 26.5948L4.98551 25.6904L6.12319 25.3983C8.50725 27.033 11.4348 28 14.587 28C18.942 28 22.8551 26.1635 25.5217 23.2557C23.2536 20.7861 21.8768 17.5513 21.8768 14.0035C21.8768 10.4557 23.2536 7.21391 25.5217 4.7513V4.74435Z" fill="#797979"/>
<path d="M48.3331 22.1217C50.036 19.833 51.0432 17.0226 51.0432 13.9965C51.036 6.26783 44.507 0 36.4563 0C32.1012 0 28.1882 1.83652 25.5215 4.74435C27.7896 7.21391 29.1664 10.4487 29.1664 13.9965C29.1664 17.5443 27.7896 20.7861 25.5215 23.2487C28.1954 26.1565 32.1012 27.993 36.4563 27.993C39.6157 27.993 42.536 27.033 44.92 25.3913L46.0577 25.6835L49.5795 26.5878L48.6374 23.207L48.3331 22.1148V22.1217Z" fill="#797979"/>
</svg>
