<svg width="40" height="40" viewBox="0 0 40 40" fill="none" xmlns="http://www.w3.org/2000/svg">
<path fill-rule="evenodd" clip-rule="evenodd" d="M20 38C29.9411 38 38 29.9411 38 20C38 10.0589 29.9411 2 20 2C10.0589 2 2 10.0589 2 20C2 29.9411 10.0589 38 20 38ZM20 40C31.0457 40 40 31.0457 40 20C40 8.95431 31.0457 -1.35705e-06 20 -8.74228e-07C8.9543 -3.91405e-07 -8.74228e-07 8.9543 -8.74228e-07 20C-8.74228e-07 31.0457 8.9543 40 20 40Z" fill="#797979"/>
<path fill-rule="evenodd" clip-rule="evenodd" d="M19.9999 13.1665C20.2966 13.1665 20.5781 13.2983 20.7681 13.5263L29.1014 23.5263C29.455 23.9506 29.3977 24.5812 28.9734 24.9347C28.5491 25.2883 27.9185 25.231 27.565 24.8067L19.9999 15.7286L12.4347 24.8067C12.0812 25.231 11.4506 25.2883 11.0263 24.9347C10.6021 24.5812 10.5447 23.9506 10.8983 23.5263L19.2316 13.5263C19.4216 13.2983 19.7031 13.1665 19.9999 13.1665Z" fill="#797979"/>
</svg>
