<svg width="380" height="602" viewBox="0 0 380 602" fill="none" xmlns="http://www.w3.org/2000/svg">
<path d="M17.9796 392.501H362.02C362.244 403.574 369.881 412.643 379.5 412.948V585.637C379.5 594.479 373.394 601.501 366.012 601.501H13.9877C6.60635 601.501 0.5 594.479 0.5 585.637V412.948C10.1189 412.643 17.7558 403.574 17.9796 392.501Z" fill="#EEEEEE" stroke="#C9C9C9"/>
<path d="M48.02 435.88V453.52H49.76V435.88H48.02ZM34.94 443.5C34.94 447.34 36.42 449.72 38.7 449.72C40.2 449.72 41.36 448.7 41.98 446.94H44.54V452.66H46.26V436.26H44.54V440.06H41.96C41.34 438.3 40.2 437.3 38.7 437.3C36.42 437.3 34.94 439.68 34.94 443.5ZM36.6 443.5C36.6 440.68 37.4 439.02 38.7 439.02C40.02 439.02 40.84 440.68 40.84 443.5C40.84 446.34 40.02 448 38.7 448C37.4 448 36.6 446.34 36.6 443.5ZM42.34 441.54H44.54V445.44H42.34C42.44 444.84 42.48 444.2 42.48 443.5C42.48 442.8 42.42 442.14 42.34 441.54ZM58.8605 435.98V436.56C58.8605 438.62 56.0405 440.34 52.6805 440.7L53.2805 442.1C56.1605 441.72 58.6805 440.5 59.8005 438.68C60.9205 440.5 63.4405 441.72 66.3005 442.1L66.9005 440.7C63.5405 440.34 60.7405 438.62 60.7405 436.56V435.98H58.8605ZM51.8205 444.6H58.8605V446.2H53.7205V447.6H63.9405V449.04H53.7805V453.36H66.2605V451.94H55.5605V450.36H65.7405V446.2H60.6805V444.6H67.7605V443.14H51.8205V444.6ZM76.8609 436.2C72.9609 436.2 70.6209 437.26 70.6209 439.22C70.6209 441.2 72.9609 442.28 76.8609 442.28C80.7809 442.28 83.1209 441.2 83.1209 439.22C83.1209 437.26 80.7809 436.2 76.8609 436.2ZM68.9009 444.84H84.8409V443.38H68.9009V444.84ZM70.8009 447.6H81.0209V449.02H70.8609V453.36H83.3409V451.94H72.6409V450.32H82.8209V446.22H70.8009V447.6ZM72.5009 439.22C72.5009 438.14 74.0809 437.54 76.8609 437.54C79.6609 437.54 81.2409 438.14 81.2409 439.22C81.2409 440.32 79.6609 440.9 76.8609 440.9C74.0809 440.9 72.5009 440.32 72.5009 439.22ZM103.471 435.88V442.82H101.291V436.26H99.5708V452.66H101.291V444.3H103.471V453.52H105.211V435.88H103.471ZM90.8108 448.86H97.5708V437.86H90.8108V448.86ZM92.5108 447.44V439.32H95.8708V447.44H92.5108ZM120.471 435.88V442.88H118.311V436.34H116.571V452.68H118.311V444.36H120.471V453.52H122.251V435.88H120.471ZM107.211 448.48L108.271 449.8C113.291 446.94 114.811 442.78 114.811 438.14H107.931V439.64H113.031C112.751 443.26 111.131 446.28 107.211 448.48ZM124.352 449.9V451.4H140.332V449.9H133.232V446.74H138.812V445.26H128.112V442.6H138.412V437.14H126.272V438.62H136.592V441.16H126.312V446.74H131.412V449.9H124.352ZM144.012 450.34H142.152L141.492 454.46H142.792L144.012 450.34ZM150.906 449.8V451.3H166.886V449.8H159.806V445.62H157.986V449.8H150.906ZM151.666 444.82L152.406 446.26C155.146 445.7 157.746 444.02 158.906 441.68C160.046 444 162.666 445.66 165.466 446.2L166.206 444.76C162.906 444.24 159.846 441.82 159.846 439.1V438.92H165.526V437.44H152.246V438.92H157.926V439.1C157.926 441.82 154.886 444.3 151.666 444.82ZM170.026 436.78V438.28H180.166C180.166 439.64 180.146 441.16 179.686 443.24H167.986V444.74H183.966V443.24H181.506C181.946 441.1 181.946 439.52 181.946 438.12V436.78H170.026ZM169.926 453.32H181.966V447H169.926V453.32ZM171.706 451.86V448.44H180.186V451.86H171.706ZM187.647 447.12V448.6H197.947V453.54H199.807V447.12H187.647ZM184.867 444.1L185.867 445.4C187.167 444.62 187.967 443.32 188.427 441.9C188.827 443.36 189.567 444.74 190.887 445.58C192.187 444.78 192.927 443.44 193.327 442C193.787 443.4 194.587 444.64 195.867 445.4L196.867 444.1C194.827 442.92 194.167 440.58 194.167 438.58V436.92H192.427V438.58C192.427 440.08 192.127 442.06 190.887 443.44C189.647 442.02 189.327 440 189.327 438.58V436.92H187.587V438.58C187.587 440.42 186.907 442.86 184.867 444.1ZM197.947 446.22H199.807V435.9H197.947V446.22ZM219.016 435.9V448.88H220.856V435.9H219.016ZM206.676 445.42L207.556 446.84C209.636 446.16 211.196 444.68 211.956 442.82C212.776 444.54 214.316 445.9 216.376 446.52L217.236 445.08C214.536 444.28 212.836 442.22 212.836 440V439.62H216.716V438.18H212.856V435.98H211.036V438.18H207.116V439.62H211.036V440C211.036 442.34 209.336 444.54 206.676 445.42ZM209.436 453.16H221.376V451.66H211.256V447.7H209.436V453.16ZM223.397 438.82V440.3H232.077V438.82H228.657V436.38H226.857V438.82H223.397ZM223.957 445.44C223.957 447.86 225.537 449.52 227.757 449.52C229.957 449.52 231.557 447.86 231.557 445.44C231.557 443.08 229.957 441.4 227.757 441.4C225.537 441.4 223.957 443.08 223.957 445.44ZM225.577 445.44C225.577 443.94 226.477 442.92 227.757 442.92C229.017 442.92 229.937 443.94 229.937 445.44C229.937 446.96 229.017 447.98 227.757 447.98C226.477 447.98 225.577 446.96 225.577 445.44ZM232.897 452.68H234.617V444.76H236.657V453.52H238.397V435.88H236.657V443.26H234.617V436.28H232.897V452.68ZM253.257 435.9V440.8H249.897V442.34H253.257V444.58H249.897V446.1H253.257V453.54H255.077V435.9H253.257ZM240.357 448.78L241.557 450.16C243.497 449.08 245.077 446.84 245.837 444.24C246.637 446.62 248.217 448.72 250.157 449.74L251.217 448.32C248.637 447 246.717 443.64 246.717 440.88V439.16H250.557V437.66H241.017V439.16H244.877V440.88C244.877 444.06 242.957 447.48 240.357 448.78ZM257.598 449.8V451.32H273.578V449.8H266.478V446.14H271.718V437.1H269.898V440.14H261.258V437.1H259.438V446.14H264.658V449.8H257.598ZM261.258 444.68V441.62H269.898V444.68H261.258ZM281.618 442.12V443.62H284.358V452.66H286.058V436.26H284.358V442.12H281.618ZM274.438 448.44L275.558 449.8C277.258 448.74 278.478 446.82 279.118 444.58C279.738 446.64 280.858 448.42 282.478 449.42L283.518 448C281.178 446.54 279.978 443.56 279.978 440.72V437.54H278.218V440.78C278.218 443.8 276.898 446.96 274.438 448.44ZM287.938 453.52H289.698V435.88H287.938V453.52ZM291.759 449.8V451.3H307.739V449.8H303.919V445.12C305.339 444.32 306.179 443.08 306.179 441.52C306.179 438.74 303.499 436.94 299.719 436.94C295.999 436.94 293.279 438.74 293.279 441.52C293.279 443.1 294.159 444.36 295.599 445.14V449.8H291.759ZM295.059 441.52C295.059 439.6 296.999 438.38 299.719 438.38C302.459 438.38 304.399 439.6 304.399 441.52C304.399 443.44 302.459 444.66 299.719 444.66C296.999 444.66 295.059 443.44 295.059 441.52ZM297.399 449.8V445.82C298.119 446 298.899 446.08 299.719 446.08C300.559 446.08 301.359 446 302.079 445.82V449.8H297.399ZM312.499 437.24H310.259L310.579 448.34H312.219L312.499 437.24ZM310.279 451.22C310.279 451.86 310.679 452.36 311.419 452.36C312.139 452.36 312.519 451.86 312.519 451.22C312.519 450.62 312.139 450.12 311.419 450.12C310.679 450.12 310.279 450.62 310.279 451.22Z" fill="#242424"/>
<path d="M36.452 490.68L33.652 492.948C36.396 496.14 39.588 496.532 41.296 496.532C45.916 496.532 49.22 493.704 49.22 490.232C49.22 483.316 38.076 485.052 38.076 481.216C38.076 479.788 39.476 478.528 41.576 478.528C43.34 478.528 44.432 479.396 45.524 480.712L48.296 478.5C46.644 476.512 44.488 475.28 41.576 475.28C37.852 475.28 34.268 477.632 34.268 481.216C34.268 488.58 45.412 486.396 45.412 490.232C45.412 491.828 44.068 493.284 41.296 493.284C39.952 493.284 38.216 492.696 36.452 490.68ZM58.1662 493.564C56.0102 493.564 54.4982 491.576 54.4982 489.056C54.4982 486.564 56.0102 484.576 58.1662 484.576C60.2942 484.576 62.0302 486.508 62.0582 489.056C62.0302 491.632 60.2942 493.564 58.1662 493.564ZM50.6902 489.056C50.6902 493.144 53.2662 496.616 57.8022 496.616C59.3702 496.616 60.9382 495.916 62.0582 494.516V496.392L65.8662 496.364V481.468H62.0582V483.624C60.9382 482.224 59.3702 481.524 57.8022 481.524C53.2662 481.524 50.6902 484.996 50.6902 489.056ZM74.1321 502.664L77.5481 494.572L83.2041 481.356H79.0601L75.2521 490.764L71.3601 481.356H67.1321L73.2921 494.852L69.9881 502.664H74.1321ZM91.8841 481.328H95.7201L96.9521 473.936H94.1521L91.8841 481.328ZM117.369 475.392H113.561V484.1H103.789V475.392H99.9809V496.392H103.789V487.124H113.561V496.392H117.369V475.392ZM120.644 481.3V496.504H124.452V481.3H120.644ZM120.532 476.232C120.532 477.352 121.232 478.248 122.548 478.248C123.864 478.248 124.564 477.352 124.564 476.232C124.564 475.084 123.864 474.188 122.548 474.188C121.232 474.188 120.532 475.084 120.532 476.232ZM132.583 473.936H128.747L127.515 481.356H130.315L132.583 473.936ZM140.177 493.032H136.341L135.109 500.564H137.909L140.177 493.032ZM157.115 493.564C154.959 493.564 153.447 491.576 153.447 489.056C153.447 486.564 154.959 484.576 157.115 484.576C159.243 484.576 160.979 486.508 161.007 489.056C160.979 491.632 159.243 493.564 157.115 493.564ZM149.639 489.056C149.639 493.144 152.215 496.616 156.751 496.616C158.319 496.616 159.887 495.916 161.007 494.516V496.392L164.815 496.364V481.468H161.007V483.624C159.887 482.224 158.319 481.524 156.751 481.524C152.215 481.524 149.639 484.996 149.639 489.056ZM174.193 481.328H178.029L179.261 473.936H176.461L174.193 481.328ZM189.626 493.172C187.61 493.172 186.014 491.324 186.014 488.972C186.014 486.648 187.61 484.828 189.626 484.828C191.586 484.828 192.986 486.648 192.986 488.972C192.986 491.324 191.586 493.172 189.626 493.172ZM182.206 496L186.014 496.028V494.208C187.274 495.944 188.786 496.224 189.99 496.224C194.358 496.224 196.794 492.892 196.794 488.972C196.794 485.108 194.358 481.776 189.99 481.776C188.786 481.776 187.162 482.336 186.014 483.764V475.112H182.206V496ZM198.879 481.3V496.504H202.687V481.3H198.879ZM198.767 476.232C198.767 477.352 199.467 478.248 200.783 478.248C202.099 478.248 202.799 477.352 202.799 476.232C202.799 475.084 202.099 474.188 200.783 474.188C199.467 474.188 198.767 475.084 198.767 476.232ZM214.934 495.776L213.646 492.808C213.058 493.06 213.086 493.116 212.526 493.032C211.77 492.892 211.294 492.08 211.294 491.296V484.604H214.514V481.552H211.294V477.576H207.486V481.552H204.798V484.604H207.486V491.296C207.486 494.068 209.39 496.308 212.134 496.308C213.366 496.308 214.15 496.14 214.934 495.776ZM222.453 473.936H218.617L217.385 481.356H220.185L222.453 473.936ZM233.84 491.884L231.376 494.068C233.476 496.336 235.856 496.616 237.06 496.616C240.728 496.616 243.164 494.32 243.164 491.772C243.164 486.984 235.408 487.6 235.408 485.724C235.408 484.94 236.108 484.352 237.284 484.352C238.348 484.352 239.244 484.968 239.944 485.752L242.352 483.568C241.12 482.196 239.44 481.272 237.284 481.272C234.4 481.272 231.6 483.12 231.6 485.808C231.6 490.596 239.356 490.148 239.356 491.884C239.356 492.724 238.824 493.536 237.06 493.536C236.192 493.536 234.932 493.088 233.84 491.884ZM244.793 475.112V496.504H248.601V475.112H244.793ZM257.468 493.396C255.396 493.396 253.94 491.436 253.94 488.944C253.94 486.424 255.396 484.436 257.468 484.436C259.54 484.436 260.996 486.424 260.996 488.944C260.996 491.436 259.54 493.396 257.468 493.396ZM250.132 488.944C250.132 493.004 253.128 496.504 257.468 496.504C262.032 496.504 264.804 493.004 264.804 488.944C264.804 484.828 262.032 481.356 257.468 481.356C253.128 481.356 250.132 484.828 250.132 488.944ZM286.555 481.44H282.607L280.227 491.016L277.595 481.44H273.731L271.155 491.016L268.747 481.44H264.799L269.251 496.392H272.891L275.691 486.704L278.519 496.392H282.131L286.555 481.44ZM287.874 475.112V496.504H291.682V475.112H287.874ZM300.235 502.664L303.651 494.572L309.307 481.356H305.163L301.355 490.764L297.463 481.356H293.235L299.395 494.852L296.091 502.664H300.235ZM313.102 492.836C311.758 492.836 311.03 493.76 311.03 494.88C311.03 496.028 311.758 496.952 313.102 496.952C314.418 496.952 315.146 496.028 315.146 494.88C315.146 493.76 314.418 492.836 313.102 492.836Z" fill="#242424"/>
<g clip-path="url(#clip0_309_1029)">
<path d="M0 15.4601C0 6.92173 6.92173 0 15.4601 0H364.54C373.078 0 380 6.92173 380 15.4601V392H0V15.4601Z" fill="white"/>
<path d="M17.4847 392H362.515C362.515 381.323 370.348 372.658 380 372.658V15.4737C380 6.92447 373.741 0 366.012 0H13.9877C6.25951 0 0 6.92447 0 15.4737V372.658C9.65153 372.658 17.4847 381.323 17.4847 392Z" fill="#804DD3"/>
</g>
<path d="M226.02 540.88V547.82H223.84V541.26H222.12V557.66H223.84V549.3H226.02V558.52H227.76V540.88H226.02ZM213.36 553.86H220.12V542.86H213.36V553.86ZM215.06 552.44V544.32H218.42V552.44H215.06ZM230.58 542.98V544.44H234.48V544.56C234.48 546.86 232.78 548.98 230.1 549.82L230.98 551.26C233.1 550.58 234.66 549.14 235.42 547.28C236.24 548.96 237.8 550.24 239.86 550.86L240.72 549.4C238.04 548.66 236.28 546.7 236.28 544.56V544.44H240.16V542.98H236.3V540.88H234.48V542.98H230.58ZM232.5 555.26C232.5 557.32 234.74 558.5 238.42 558.5C242.1 558.5 244.38 557.32 244.38 555.26C244.38 553.2 242.1 552.02 238.42 552.02C234.74 552.02 232.5 553.2 232.5 555.26ZM234.32 555.26C234.32 554.1 235.82 553.44 238.42 553.44C241.02 553.44 242.56 554.1 242.56 555.26C242.56 556.42 241.02 557.08 238.42 557.08C235.82 557.08 234.32 556.42 234.32 555.26ZM242.48 551.68H244.3V540.9H242.48V551.68ZM262.91 540.9V558.54H264.75V549.28H267.55V547.74H264.75V540.9H262.91ZM251.79 554.32H260.11V542.36H258.29V546.92H253.61V542.36H251.79V554.32ZM253.61 552.84V548.36H258.29V552.84H253.61ZM268.191 554.9V556.4H284.171V554.9H277.071V551.74H282.651V550.26H271.951V547.6H282.251V542.14H270.111V543.62H280.431V546.16H270.151V551.74H275.251V554.9H268.191ZM297.051 540.86V558.52H298.911V549.46H301.631V547.94H298.911V540.86H297.051ZM285.311 553.84L286.331 555.24C292.071 552.36 294.311 547.84 294.311 542.76H286.171V544.24H292.471C292.111 548.38 289.711 551.6 285.311 553.84ZM315.032 540.88V558.52H316.872V540.88H315.032ZM302.512 553.86L303.472 555.3C309.472 552.4 311.652 547.94 311.652 542.76H303.352V544.24H309.812C309.452 548.38 307.192 551.6 302.512 553.86Z" fill="#242424"/>
<path d="M330 550H348L342.375 544" stroke="#242424"/>
<defs>
<clipPath id="clip0_309_1029">
<path d="M0 15.4601C0 6.92173 6.92173 0 15.4601 0H364.54C373.078 0 380 6.92173 380 15.4601V392H0V15.4601Z" fill="white"/>
</clipPath>
</defs>
</svg>
