<svg width="380" height="392" viewBox="0 0 380 392" fill="none" xmlns="http://www.w3.org/2000/svg">
<g clip-path="url(#clip0_309_1033)">
<path d="M0 15.4601C0 6.92173 6.92173 0 15.4601 0H364.54C373.078 0 380 6.92173 380 15.4601V392H0V15.4601Z" fill="white"/>
<path d="M17.4847 392H362.515C362.515 381.323 370.348 372.658 380 372.658V15.4737C380 6.92447 373.741 0 366.012 0H13.9877C6.25951 0 0 6.92447 0 15.4737V372.658C9.65153 372.658 17.4847 381.323 17.4847 392Z" fill="#804DD3"/>
</g>
<defs>
<clipPath id="clip0_309_1033">
<path d="M0 15.4601C0 6.92173 6.92173 0 15.4601 0H364.54C373.078 0 380 6.92173 380 15.4601V392H0V15.4601Z" fill="white"/>
</clipPath>
</defs>
</svg>
