<svg width="24" height="24" viewBox="0 0 24 24" fill="none" xmlns="http://www.w3.org/2000/svg">
<g id="Group 1454">
<circle id="Ellipse 180" cx="12" cy="12" r="11.5" fill="#D8C9F2" stroke="#804DD3"/>
<path id="Vector 572 (Stroke)" d="M11.11 14.001C11.1568 14.0674 11.233 14.1069 11.3143 14.1069C11.3956 14.1069 11.4718 14.0674 11.5186 14.001L15.9995 7.64778C16.2825 7.24657 16.8784 7.12383 17.3267 7.39487C17.7645 7.65959 17.8745 8.18594 17.6003 8.57467L12.1147 16.3523C11.9429 16.596 11.6435 16.75 11.3143 16.75C10.9851 16.75 10.6857 16.596 10.5139 16.3523L6.39971 10.5191C6.12554 10.1304 6.23555 9.60401 6.67334 9.33928C7.12157 9.06825 7.71754 9.19099 8.00051 9.5922L11.11 14.001Z" fill="#804DD3" stroke="#D8C9F2" stroke-width="0.5" stroke-linecap="round" stroke-linejoin="round"/>
</g>
</svg>
