<svg width="16" height="14" viewBox="0 0 16 14" fill="none" xmlns="http://www.w3.org/2000/svg">
<path d="M8.0074 2.37447C8.1106 2.2447 8.2282 2.11494 8.3258 1.97274C9.41542 0.383708 10.9811 -0.273662 12.7859 0.103976C14.2731 0.41479 15.5827 1.86396 15.8931 3.52836C16.2996 5.71027 15.5235 7.54251 13.9587 9.02354C12.1635 10.7221 10.2514 12.305 8.3618 13.9064C8.2106 14.0346 7.73779 14.03 7.58579 13.8994C5.70735 12.2855 3.77932 10.7128 2.02808 8.97459C0.24085 7.19984 -0.578365 5.05523 0.451254 2.58193C1.07927 1.07527 2.22409 0.113301 3.94972 0.0153946C5.55775 -0.0762953 6.77457 0.622257 7.60499 1.95875C7.67379 2.06909 7.74499 2.17865 7.82579 2.28045C7.85459 2.31697 7.9162 2.3294 8.0066 2.37524L8.0074 2.37447Z" fill="#FF4242"/>
</svg>
