<svg width="32" height="32" viewBox="0 0 32 32" fill="none" xmlns="http://www.w3.org/2000/svg">
<path d="M29.9142 32C29.3461 31.8312 28.9528 31.4444 28.5522 31.0435C26.1414 28.6173 23.7233 26.198 21.3125 23.7717C21.2324 23.6873 21.1523 23.6029 21.0649 23.5115C17.4741 25.8042 13.6139 26.4512 9.49146 25.2697C6.43969 24.3906 4.01431 22.6183 2.25171 20.0584C-1.55025 14.5237 -0.443163 7.25886 4.85919 2.99703C9.90662 -1.05382 17.0153 -0.955364 21.9607 3.03219C23.7961 4.50907 25.1217 6.34461 25.9521 8.51069C26.7751 10.6627 26.9644 12.885 26.5566 15.1496C26.1487 17.4212 25.1582 19.4395 23.6213 21.2259C23.7816 21.3876 23.9273 21.5423 24.0802 21.69C26.5202 24.1374 28.9528 26.5778 31.3928 29.0252C32.1503 29.7847 32.2158 30.7974 31.4948 31.4725C31.2471 31.7046 30.8757 31.8242 30.5625 32H29.9142V32ZM13.3954 3.38383C7.96193 3.3768 3.52632 7.64566 3.51175 12.9132C3.4899 18.1666 7.96922 22.4918 13.3954 22.4707C18.8507 22.4496 23.2645 18.1877 23.2645 12.9343C23.2645 7.68083 18.8361 3.3979 13.3954 3.39086V3.38383Z" fill="#5E1EC7"/>
</svg>
