<svg width="80" height="80" viewBox="0 0 80 80" fill="none" xmlns="http://www.w3.org/2000/svg">
<path d="M40 79.97C48.2221 79.97 56.084 77.5112 62.7757 72.8636L76.5791 76.5517L72.8882 62.7586C77.5394 56.042 80 48.1859 80 40C80 17.931 62.0555 0 40 0C28.5371 0 17.5844 4.94753 9.99249 13.5532C3.54089 20.8696 0 30.2549 0 40C0 49.7451 3.54089 59.1304 9.99249 66.4468C17.5844 75.0525 28.5371 80 40 80V79.97Z" fill="#FFC942"/>
<path d="M40 79.97C48.2221 79.97 56.084 77.5112 62.7757 72.8636L76.5791 76.5517L72.8882 62.7586C77.5394 56.042 80 48.1859 80 40C80 17.931 62.0555 0 40 0C28.5371 0 17.5844 4.94753 9.99249 13.5532C3.54089 20.8696 0 30.2549 0 40C0 49.7451 3.54089 59.1304 9.99249 66.4468C17.5844 75.0525 28.5371 80 40 80V79.97Z" stroke="white"/>
<path d="M55.3447 53.5845C55.2697 53.2355 55.063 52.865 54.792 52.591C53.0883 50.8704 51.3462 49.1298 49.6623 47.4475L48.2096 45.9947L48.2861 45.8968C49.797 43.945 50.6956 41.7253 50.9604 39.299C51.311 36.0782 50.5854 33.113 48.8051 30.4861C46.7415 27.4429 43.8636 25.5462 40.2494 24.8482C39.8835 24.7777 39.5161 24.7303 39.1579 24.6844C38.9987 24.6645 38.838 24.643 38.668 24.6201L37.0316 24.6155L36.9627 24.6201C36.8035 24.643 36.6443 24.6645 36.4805 24.6859C36.1254 24.7318 35.7595 24.7808 35.3937 24.8528C31.5452 25.6166 28.5479 27.7108 26.4844 31.0785C25.4419 32.7808 24.8295 34.6882 24.6658 36.7471C24.6642 36.767 24.655 36.8038 24.6474 36.8374C24.6397 36.8696 24.6321 36.9017 24.626 36.9339L24.6152 36.9921V38.6714L24.6642 39.0479C24.6872 39.2087 24.7086 39.3694 24.73 39.5301C25.1342 42.5749 26.4415 45.1849 28.6168 47.2852C31.3232 49.8983 34.5992 51.1551 38.3619 51.0265C40.7025 50.9438 42.8961 50.2611 44.8831 48.9966C45.2306 48.7747 45.5597 48.5374 45.9088 48.2864L46.0098 48.2144C48.1866 50.3943 50.3649 52.5726 52.5433 54.7494L52.5816 54.7877C52.6841 54.8903 52.7989 55.0066 52.9474 55.1046C53.226 55.2898 53.5199 55.3832 53.8215 55.3832C54.0986 55.3832 54.3695 55.3036 54.6282 55.1444C55.2115 54.7877 55.4794 54.2029 55.3447 53.5829V53.5845ZM47.9172 37.8248C47.9202 40.516 46.8824 43.0464 44.9933 44.9492C43.0951 46.8612 40.554 47.9159 37.8276 47.919C32.2754 47.919 27.7549 43.3939 27.7488 37.8309C27.7457 35.1459 28.7974 32.6155 30.7078 30.705C32.6168 28.7976 35.1457 27.746 37.8276 27.746H37.8429C43.3906 27.7536 47.9095 32.2741 47.9172 37.8233V37.8248Z" fill="white"/>
</svg>
