<svg width="32" height="32" viewBox="0 0 32 32" fill="none" xmlns="http://www.w3.org/2000/svg">
<path d="M31.75 15.9987C31.75 24.6965 24.6985 31.7475 16 31.7475C7.3015 31.7475 0.25 24.6965 0.25 15.9987C0.25 7.30097 7.3015 0.25 16 0.25C24.6985 0.25 31.75 7.30097 31.75 15.9987Z" fill="#EEEEEE" stroke="#C9C9C9" stroke-width="0.5"/>
<path d="M19.9154 23.1607C19.8821 23.1407 19.8454 23.124 19.8121 23.104C22.6721 21.6941 24.6521 18.7677 24.6687 15.3846C24.6887 10.5817 20.8354 6.69863 16.0121 6.66863C11.2521 6.63863 7.34874 10.5117 7.33207 15.2779C7.32207 18.7143 9.28874 21.6874 12.1521 23.1107C11.8621 23.284 11.5721 23.474 11.2854 23.6873C9.23874 25.2172 8.20207 27.3603 8.02207 29.9568C10.4454 31.28 13.1821 32 15.9987 32C18.8154 32 21.5321 31.3034 23.9654 29.9768C23.7154 26.987 22.4454 24.6372 19.9154 23.1607ZM13.4654 14.8413C13.0021 14.8413 12.6254 14.4647 12.6254 14.0014C12.6254 13.5381 13.0021 13.1614 13.4654 13.1614C13.9287 13.1614 14.3054 13.5381 14.3054 14.0014C14.3054 14.4647 13.9287 14.8413 13.4654 14.8413ZM15.9987 17.9344C15.1187 17.9344 14.4054 17.2178 14.4054 16.3412H14.9054C14.9054 16.9445 15.3954 17.4344 15.9987 17.4344C16.6021 17.4344 17.0921 16.9445 17.0921 16.3412H17.5921C17.5921 17.2211 16.8754 17.9344 15.9987 17.9344ZM18.5321 14.8413C18.0687 14.8413 17.6921 14.4647 17.6921 14.0014C17.6921 13.5381 18.0687 13.1614 18.5321 13.1614C18.9954 13.1614 19.3721 13.5381 19.3721 14.0014C19.3721 14.4647 18.9954 14.8413 18.5321 14.8413Z" fill="#C9C9C9"/>
</svg>
