<svg width="32" height="32" viewBox="0 0 32 32" fill="none" xmlns="http://www.w3.org/2000/svg">
<circle cx="16" cy="16" r="16" fill="#FFC942"/>
<path d="M16.0072 12.9574C16.0866 12.8547 16.177 12.7519 16.2521 12.6393C17.0903 11.3808 18.2946 10.8602 19.683 11.1593C20.827 11.4054 21.8344 12.5531 22.0732 13.8713C22.3858 15.5993 21.7888 17.0504 20.5851 18.2234C19.2042 19.5686 17.7334 20.8222 16.2798 22.0905C16.1635 22.1921 15.7998 22.1884 15.6829 22.085C14.2379 20.8068 12.7548 19.5613 11.4077 18.1846C10.0329 16.7791 9.40276 15.0806 10.1948 13.1218C10.6779 11.9285 11.5585 11.1666 12.8859 11.0891C14.1228 11.0165 15.0589 11.5697 15.6976 12.6282C15.7506 12.7156 15.8053 12.8024 15.8675 12.883C15.8897 12.9119 15.937 12.9217 16.0066 12.9581L16.0072 12.9574Z" fill="white"/>
</svg>
