<svg width="32" height="32" viewBox="0 0 32 32" fill="none" xmlns="http://www.w3.org/2000/svg">
<circle cx="16" cy="16" r="16" fill="#FFC942"/>
<path d="M16.0072 12.9577C16.0866 12.8549 16.177 12.7521 16.2521 12.6395C17.0903 11.381 18.2946 10.8604 19.683 11.1595C20.827 11.4057 21.8344 12.5534 22.0732 13.8715C22.3858 15.5996 21.7888 17.0507 20.5851 18.2236C19.2042 19.5689 17.7334 20.8224 16.2798 22.0908C16.1635 22.1923 15.7998 22.1886 15.6829 22.0852C14.2379 20.8071 12.7548 19.5615 11.4077 18.1849C10.0329 16.7793 9.40276 15.0808 10.1948 13.122C10.6779 11.9287 11.5585 11.1669 12.8859 11.0893C14.1228 11.0167 15.0589 11.57 15.6976 12.6284C15.7506 12.7158 15.8053 12.8026 15.8675 12.8832C15.8897 12.9121 15.937 12.922 16.0066 12.9583L16.0072 12.9577Z" fill="white"/>
</svg>
