<svg width="18" height="18" viewBox="0 0 18 18" fill="none" xmlns="http://www.w3.org/2000/svg">
<path d="M1 0.153434C0.532454 0.153434 0.153434 0.532454 0.153434 1L0.153434 8.6191C0.153434 9.08664 0.532454 9.46566 1 9.46566C1.46755 9.46566 1.84657 9.08664 1.84657 8.6191V1.84657H8.6191C9.08664 1.84657 9.46566 1.46755 9.46566 1C9.46566 0.532454 9.08664 0.153434 8.6191 0.153434L1 0.153434ZM16.8392 17.6858C17.3067 17.6858 17.6858 17.3067 17.6858 16.8392V9.22009C17.6858 8.75255 17.3067 8.37353 16.8392 8.37353C16.3716 8.37353 15.9926 8.75255 15.9926 9.22009L15.9926 15.9926L9.22009 15.9926C8.75255 15.9926 8.37353 16.3716 8.37353 16.8392C8.37353 17.3067 8.75255 17.6858 9.22009 17.6858H16.8392ZM0.401387 1.59861L16.2406 17.4378L17.4378 16.2406L1.59861 0.401387L0.401387 1.59861Z" fill="#232323"/>
</svg>
