<svg width="80" height="80" viewBox="0 0 80 80" fill="none" xmlns="http://www.w3.org/2000/svg">
<path d="M40 79.97C48.2221 79.97 56.084 77.5112 62.7757 72.8636L76.5791 76.5517L72.8882 62.7586C77.5394 56.042 80 48.1859 80 40C80 17.931 62.0555 0 40 0C28.5371 0 17.5844 4.94753 9.99249 13.5532C3.54089 20.8696 0 30.2549 0 40C0 49.7451 3.54089 59.1304 9.99249 66.4468C17.5844 75.0525 28.5371 80 40 80V79.97Z" fill="#FFC942"/>
<path d="M40 79.97C48.2221 79.97 56.084 77.5112 62.7757 72.8636L76.5791 76.5517L72.8882 62.7586C77.5394 56.042 80 48.1859 80 40C80 17.931 62.0555 0 40 0C28.5371 0 17.5844 4.94753 9.99249 13.5532C3.54089 20.8696 0 30.2549 0 40C0 49.7451 3.54089 59.1304 9.99249 66.4468C17.5844 75.0525 28.5371 80 40 80V79.97Z" stroke="white"/>
<path d="M40.0141 32.3937C40.2125 32.1368 40.4387 31.8799 40.6264 31.5983C42.7218 28.4521 45.7326 27.1505 49.2035 27.8983C52.0635 28.5136 54.582 31.3829 55.179 34.6784C55.9605 38.9985 54.4682 42.6262 51.4589 45.5586C48.0065 48.9217 44.3295 52.0556 40.6956 55.2265C40.4049 55.4803 39.4956 55.4711 39.2033 55.2126C35.5909 52.0172 31.8832 48.9033 28.5154 45.4617C25.0784 41.9477 23.503 37.7015 25.483 32.8045C26.6907 29.8214 28.8923 27.9167 32.2109 27.7229C35.3032 27.5413 37.6433 28.9244 39.2402 31.5706C39.3725 31.7891 39.5095 32.006 39.6648 32.2076C39.7202 32.2799 39.8387 32.3045 40.0125 32.3953L40.0141 32.3937Z" fill="white"/>
</svg>
