<svg width="80" height="80" viewBox="0 0 80 80" fill="none" xmlns="http://www.w3.org/2000/svg">
<path d="M40 79.97C48.2221 79.97 56.084 77.5112 62.7757 72.8636L76.5791 76.5517L72.8882 62.7586C77.5394 56.042 80 48.1859 80 40C80 17.931 62.0555 0 40 0C28.5371 0 17.5844 4.94753 9.9925 13.5532C3.54088 20.8696 -2.62726e-06 30.2549 -2.62726e-06 40C-2.62726e-06 49.7451 3.54088 59.1304 9.9925 66.4468C17.5844 75.0525 28.5371 80 40 80V79.97Z" fill="#FFC942"/>
<path d="M52.0005 32.6155H50.1543V30.7693C50.1543 25.6721 46.0208 21.5386 40.9235 21.5386C35.8263 21.5386 31.6928 25.6721 31.6928 30.7693V32.6155H29.8466C27.8066 32.6155 26.1543 34.2678 26.1543 36.3078V54.7693C26.1543 56.8093 27.8066 58.4617 29.8466 58.4617H52.0005C54.0405 58.4617 55.6928 56.8093 55.6928 54.7693V36.3078C55.6928 34.2678 54.0405 32.6155 52.0005 32.6155ZM42.7697 46.7829V50.0506H39.0774V46.7829C37.9752 46.1441 37.2312 44.9552 37.2312 43.589C37.2312 41.549 38.8835 39.8967 40.9235 39.8967C42.9635 39.8967 44.6158 41.549 44.6158 43.589C44.6158 44.9552 43.8718 46.1441 42.7697 46.7829ZM46.462 32.6155H35.3851V30.7693C35.3851 27.7158 37.87 25.2309 40.9235 25.2309C43.9771 25.2309 46.462 27.7158 46.462 30.7693V32.6155Z" fill="white"/>
</svg>
