<svg width="12" height="12" viewBox="0 0 12 12" fill="none" xmlns="http://www.w3.org/2000/svg">
<path fill-rule="evenodd" clip-rule="evenodd" d="M1.04928 0.583894C1.35861 0.261418 1.86014 0.261418 2.16947 0.583894L11.4399 10.2482C11.7492 10.5707 11.7492 11.0935 11.4399 11.416C11.1306 11.7384 10.629 11.7384 10.3197 11.416L1.04928 1.75168C0.739943 1.42921 0.739943 0.90637 1.04928 0.583894Z" fill="white"/>
<path fill-rule="evenodd" clip-rule="evenodd" d="M0.560098 11.4159C0.250764 11.0934 0.250764 10.5706 0.560098 10.2481L9.83053 0.583849C10.1399 0.261374 10.6414 0.261374 10.9507 0.583849C11.2601 0.906325 11.2601 1.42916 10.9507 1.75164L1.68029 11.4159C1.37096 11.7384 0.869432 11.7384 0.560098 11.4159Z" fill="white"/>
</svg>
